<?xml version="1.0" encoding="UTF-8"?>
<svg version="1.1" xmlns="http://www.w3.org/2000/svg" width="512" height="512">
<path d="M0 0 C2.8669394 2.048251 4.08864425 3.82599254 5.83642578 6.87182617 C6.44502441 7.91669189 7.05362305 8.96155762 7.68066406 10.03808594 C8.3276123 11.17560303 8.97456055 12.31312012 9.64111328 13.48510742 C10.33102775 14.67720244 11.02230128 15.86851182 11.71484375 17.05908203 C13.1986839 19.61159756 14.6771277 22.1671386 16.15283203 24.72436523 C19.84467498 31.10550484 23.62490022 37.43446854 27.39642334 43.76870728 C28.61376523 45.81415564 29.82922779 47.86070706 31.04394531 49.90771484 C35.18292602 56.88209582 39.33405448 63.84894017 43.51611328 70.79760742 C48.52508968 70.2361775 52.78982026 69.1216057 57.48095703 67.29370117 C58.78877727 66.7953328 60.09672392 66.29729603 61.40478516 65.79956055 C63.43173897 65.01875527 65.45690844 64.23381819 67.47973633 63.44238281 C69.45504777 62.6728339 71.43614242 61.91999207 73.41845703 61.16870117 C74.58884521 60.71422607 75.7592334 60.25975098 76.96508789 59.79150391 C82.03414747 58.37272484 86.57420439 57.78443757 91.39111328 60.29760742 C102.08685632 72.88083452 98.19232733 103.87614265 97.05029297 119.40307617 C95.8256454 133.66725308 94.14641276 149.54914374 88.51611328 162.79760742 C89.15186279 162.46140381 89.7876123 162.1252002 90.44262695 161.77880859 C111.326288 150.82274419 132.65387816 141.77506199 155.32861328 135.11010742 C156.56285034 134.74381226 156.56285034 134.74381226 157.82202148 134.37011719 C162.8679262 132.9747104 167.2779602 132.41819525 172.51611328 132.79760742 C175.51611328 134.67260742 175.51611328 134.67260742 177.51611328 137.79760742 C178.77556124 145.04937617 176.88669379 152.67548371 175.51611328 159.79760742 C176.10529541 159.72759521 176.69447754 159.65758301 177.30151367 159.58544922 C191.45275305 158.02230323 205.91748896 158.21055192 220.07861328 159.61010742 C221.20964478 159.71512573 221.20964478 159.71512573 222.36352539 159.82226562 C228.04820312 160.46776905 233.51808202 161.61226073 237.51611328 165.98510742 C239.88334578 172.64294883 236.68773999 179.95587039 234.39111328 186.29760742 C234.0769043 187.17344482 233.76269531 188.04928223 233.43896484 188.95166016 C228.73419853 201.87801736 223.27497132 213.7582614 216.07177734 225.50488281 C215.38100098 226.64751587 215.38100098 226.64751587 214.67626953 227.81323242 C214.25998291 228.48644531 213.84369629 229.1596582 213.41479492 229.85327148 C212.23640872 232.04576375 212.23640872 232.04576375 212.51611328 235.79760742 C213.76950039 237.40323536 213.76950039 237.40323536 215.54345703 238.74291992 C216.17058594 239.26241211 216.79771484 239.7819043 217.44384766 240.31713867 C218.10707031 240.84694336 218.77029297 241.37674805 219.45361328 241.92260742 C220.75667152 242.98492469 222.05756269 244.04990734 223.35595703 245.11791992 C224.22788696 245.81812256 224.22788696 245.81812256 225.11743164 246.5324707 C227.51845754 248.70424871 227.56262704 250.13483221 228.01611328 253.42260742 C227.89212954 259.1878516 224.44937195 261.95072099 220.51611328 265.79760742 C219.60861328 266.73991211 218.70111328 267.6822168 217.76611328 268.65307617 C212.25225729 274.35124441 206.55482849 279.60583734 200.33251953 284.53588867 C197.85765996 286.52332791 195.46817256 288.58193174 193.08569336 290.67822266 C171.15813775 309.80898319 144.46423883 325.46797 116.51611328 333.79760742 C117.17095703 334.5272168 117.82580078 335.25682617 118.50048828 336.00854492 C126.43182799 345.01581878 133.16376709 354.62407351 139.51611328 364.79760742 C139.91443359 365.43327637 140.31275391 366.06894531 140.72314453 366.72387695 C144.87473793 373.47021623 147.91379286 378.79271531 146.51611328 386.79760742 C144.63990715 389.2992156 143.27720025 390.41706394 140.51611328 391.79760742 C133.37150214 392.78810633 126.17175659 392.96668902 118.96923828 393.00073242 C117.99613708 393.0064325 117.02303589 393.01213257 116.02044678 393.01800537 C113.97002219 393.027386 111.919583 393.03396145 109.86914062 393.0378418 C106.81497967 393.04745363 103.76152063 393.07850579 100.70751953 393.11010742 C82.55478915 393.20853715 64.59783238 391.55229173 46.95361328 387.11010742 C45.42317383 386.73426514 45.42317383 386.73426514 43.86181641 386.35083008 C31.51249118 383.19866291 19.48985734 378.91595491 7.85083008 373.72927856 C7.03938034 373.36789354 6.2279306 373.00650852 5.39189148 372.63417244 C4.77288467 372.35810598 4.15387787 372.08203953 3.51611328 371.79760742 C3.52499573 372.94130798 3.53387817 374.08500854 3.54302979 375.2633667 C3.6240672 386.03428325 3.68405546 396.80513806 3.72336197 407.57629013 C3.74424914 413.11405885 3.77258771 418.65158175 3.81787109 424.18920898 C3.86128808 429.53194855 3.88524188 434.87445147 3.89562225 440.21735382 C3.90302105 442.25716122 3.91746896 444.29695547 3.93903351 446.33666229 C3.96801215 449.19079215 3.97207158 452.04394039 3.97021484 454.89819336 C3.98459595 455.7440802 3.99897705 456.58996704 4.01379395 457.46148682 C3.97332921 463.19858638 3.97332921 463.19858638 1.61273193 466.2913208 C-1.94066936 468.84421272 -4.10692748 469.06022498 -8.48388672 468.79760742 C-11.82653877 467.59053863 -12.43093238 466.87703893 -14.48388672 463.79760742 C-14.66866799 460.83703911 -14.73599392 457.97185102 -14.7109375 455.01171875 C-14.71122955 454.11395218 -14.71152161 453.21618561 -14.71182251 452.29121399 C-14.71042797 449.32059093 -14.69486087 446.35021797 -14.67919922 443.37963867 C-14.67546953 441.32126503 -14.67262235 439.26288961 -14.67062378 437.20451355 C-14.66298384 431.78426216 -14.64333221 426.36411778 -14.62121582 420.94390869 C-14.60076518 415.41403654 -14.59162373 409.88414711 -14.58154297 404.35424805 C-14.5600867 393.50198746 -14.52594636 382.64980634 -14.48388672 371.79760742 C-15.92280525 372.52389847 -15.92280525 372.52389847 -17.39079285 373.26486206 C-18.66291132 373.90460493 -19.93507453 374.54425886 -21.20727539 375.18383789 C-22.15325214 375.66176033 -22.15325214 375.66176033 -23.11833954 376.14933777 C-27.59658551 378.39763768 -32.03039297 380.38519008 -36.79638672 381.92260742 C-37.52583496 382.16140625 -38.2552832 382.40020508 -39.00683594 382.64624023 C-54.60235885 387.51078053 -71.21309752 390.38434395 -87.48388672 391.79760742 C-88.90785767 391.9278833 -88.90785767 391.9278833 -90.3605957 392.06079102 C-99.78091792 392.83660649 -109.15096318 392.9514235 -118.59838867 392.92797852 C-121.17811904 392.92259337 -123.75767705 392.92797157 -126.33740234 392.93432617 C-151.50476734 392.94687357 -151.50476734 392.94687357 -156.48388672 388.79760742 C-158.23619968 385.29298151 -157.95402337 381.62748271 -157.48388672 377.79760742 C-156.37570779 374.67764685 -154.81239554 371.94156455 -153.10888672 369.11010742 C-152.65771484 368.3326416 -152.20654297 367.55517578 -151.74169922 366.75415039 C-144.7421908 354.89630262 -136.45332337 344.21742106 -127.48388672 333.79760742 C-128.05083252 333.60763184 -128.61777832 333.41765625 -129.2019043 333.22192383 C-159.18731582 323.05482082 -184.28727374 307.04841154 -208.48388672 286.79760742 C-209.01208008 286.36109863 -209.54027344 285.92458984 -210.08447266 285.47485352 C-217.29795757 279.50572633 -224.17007994 273.29096899 -230.79638672 266.67260742 C-231.44897461 266.0208252 -232.1015625 265.36904297 -232.77392578 264.69750977 C-237.11187136 260.30728579 -238.5500492 258.37671079 -238.90966797 251.96557617 C-237.63979581 245.49971336 -230.64803411 241.68073968 -225.74951172 237.98120117 C-225.00185547 237.26061523 -224.25419922 236.5400293 -223.48388672 235.79760742 C-223.48388672 231.02329203 -225.18855362 228.38680879 -227.54638672 224.42260742 C-228.38307898 222.96675633 -229.21768691 221.50970553 -230.05029297 220.05151367 C-230.46553223 219.32722168 -230.88077148 218.60292969 -231.30859375 217.85668945 C-236.64388104 208.50940798 -240.67242606 199.01728764 -244.35888672 188.92260742 C-244.75269531 187.85212158 -245.14650391 186.78163574 -245.55224609 185.67871094 C-250.62500184 171.42217221 -250.62500184 171.42217221 -248.23388672 165.92260742 C-243.37473052 160.02220347 -235.66251848 160.29149617 -228.54248047 159.44995117 C-214.71734013 158.17017938 -200.26576596 157.99014785 -186.48388672 159.79760742 C-186.62826172 159.04737305 -186.77263672 158.29713867 -186.92138672 157.52416992 C-190.05405355 140.25099309 -190.05405355 140.25099309 -186.48388672 134.67260742 C-182.06131609 131.90850078 -177.99700173 132.2981935 -173.03662109 133.28393555 C-170.24476058 133.99081533 -167.49169734 134.78015128 -164.73388672 135.61010742 C-163.69748047 135.91924072 -162.66107422 136.22837402 -161.59326172 136.546875 C-139.95122883 143.19890163 -119.48803939 152.25405277 -99.48388672 162.79760742 C-99.88305298 161.67032227 -99.88305298 161.67032227 -100.2902832 160.52026367 C-105.49401963 145.50549817 -108.04797614 128.65385482 -108.48388672 112.79760742 C-108.52255859 111.68361572 -108.52255859 111.68361572 -108.56201172 110.54711914 C-108.91621241 99.19720072 -108.43187826 88.02831129 -107.23388672 76.73510742 C-107.12463867 75.62304932 -107.01539063 74.51099121 -106.90283203 73.36523438 C-105.76107392 63.65204937 -105.76107392 63.65204937 -101.48388672 59.79760742 C-97.19374295 57.65253554 -92.03289657 58.43846551 -87.60986328 59.89916992 C-86.2765703 60.39412864 -84.94818768 60.90247641 -83.62451172 61.42260742 C-82.91284851 61.68895996 -82.2011853 61.9553125 -81.46795654 62.22973633 C-79.21840218 63.07343506 -76.97594267 63.93420099 -74.73388672 64.79760742 C-72.47677984 65.65865012 -70.21837817 66.51579391 -67.95697021 67.36547852 C-66.55635407 67.89251798 -65.15829092 68.42640697 -63.76324463 68.96801758 C-60.40256373 70.24039345 -58.13929629 70.79760742 -54.48388672 70.79760742 C-52.56523757 68.46831506 -52.56523757 68.46831506 -50.90185547 65.33276367 C-50.40539017 64.46888535 -50.40539017 64.46888535 -49.89889526 63.58755493 C-48.80950599 61.68578809 -47.74094732 59.77308416 -46.67138672 57.86010742 C-45.91653833 56.5366018 -45.15992679 55.21410031 -44.40161133 53.89257812 C-43.23747705 51.86315713 -42.07454412 49.83313898 -40.91706848 47.7999115 C-35.4952323 38.27596033 -29.81619629 28.90583146 -24.13818359 19.53295898 C-23.06513976 17.75869937 -21.99589277 15.98213578 -20.93115234 14.20288086 C-19.5624857 11.91598326 -18.18162194 9.63699434 -16.79638672 7.36010742 C-16.21739624 6.38400513 -16.21739624 6.38400513 -15.62670898 5.38818359 C-11.85468268 -0.73998881 -6.96339841 -3.37082143 0 0 Z " fill="#4458DA" transform="translate(261.48388671875,22.202392578125)"/>
</svg>
